<svg version="1.1" viewBox="0.0 0.0 128.0 128.0" fill="none" stroke="none" stroke-linecap="square" stroke-miterlimit="10" xmlns:xlink="http://www.w3.org/1999/xlink" xmlns="http://www.w3.org/2000/svg"><clipPath id="p.0"><path d="m0 0l128.0 0l0 128.0l-128.0 0l0 -128.0z" clip-rule="nonzero"/></clipPath><g clip-path="url(#p.0)"><path fill="#000000" fill-opacity="0.0" d="m0 0l128.0 0l0 128.0l-128.0 0z" fill-rule="evenodd"/><defs><linearGradient id="p.1" gradientUnits="userSpaceOnUse" gradientTransform="matrix(12.90450487235127 0.0 0.0 12.90450487235127 0.0 0.0)" spreadMethod="pad" x1="4.959400721098419" y1="14.084379819027607" x2="14.084379819027607" y2="4.959633112247572"><stop offset="0.0" stop-color="#bb00ff"/><stop offset="0.33" stop-color="#bb00ff"/><stop offset="1.0" stop-color="#0099ff"/></linearGradient></defs><path fill="url(#p.1)" d="m64.0 127.09252l-54.659424 -27.329727l0 -71.52559l54.659424 -27.329725l54.659424 27.329725l0 71.52559z" fill-rule="evenodd"/><path stroke="#000000" stroke-width="2.0" stroke-linejoin="round" stroke-linecap="butt" d="m64.0 127.09252l-54.659424 -27.329727l0 -71.52559l54.659424 -27.329725l54.659424 27.329725l0 71.52559z" fill-rule="evenodd"/><path fill="#000000" fill-opacity="0.0" d="m9.340551 28.178478l54.659447 -27.561024l54.659447 27.561024l-54.659447 27.561024z" fill-rule="evenodd"/><path stroke="#000000" stroke-width="2.0" stroke-linejoin="round" stroke-linecap="butt" d="m9.340551 28.178478l54.659447 -27.561024l54.659447 27.561024l-54.659447 27.561024z" fill-rule="evenodd"/><path fill="#000000" fill-opacity="0.0" d="m64.0 55.739502l0 71.35433" fill-rule="evenodd"/><path stroke="#000000" stroke-width="2.0" stroke-linejoin="round" stroke-linecap="butt" d="m64.0 55.739502l0 71.35433" fill-rule="evenodd"/><path fill="#000000" fill-opacity="0.0" d="m9.340551 28.178478l54.661415 27.562992" fill-rule="evenodd"/><path stroke="#000000" stroke-width="2.0" stroke-linejoin="round" stroke-linecap="butt" d="m9.340551 28.178478l54.661415 27.562992" fill-rule="evenodd"/><path fill="#000000" fill-opacity="0.0" d="m118.65945 28.178478l-54.65748 27.562992" fill-rule="evenodd"/><path stroke="#000000" stroke-width="2.0" stroke-linejoin="round" stroke-linecap="butt" d="m118.65945 28.178478l-54.65748 27.562992" fill-rule="evenodd"/></g></svg>